<svg xmlns="http://www.w3.org/2000/svg" width="277" height="257" viewBox="0 0 277.2 256.6"><path d="m270.1 136.6c0 66.3-68.1 120-129.6 120-55.4 0-129.6-53.7-129.6-120 0-66.3 58-120 129.6-120 71.5 0 129.6 53.7 129.6 120" fill="#bbb"/><path d="M0 54.9C0 24.6 21.1 0 47.2 0c26 0 47.2 24.6 47.2 54.9 0 30.3-21.1 54.9-47.2 54.9C21.1 109.7 0 85.2 0 54.9" fill="#010101"/><path d="m182.8 56.4c0-30.3 21.1-54.9 47.2-54.9 26.1 0 47.2 24.6 47.2 54.9 0 30.3-21.1 54.9-47.2 54.9-26 0-47.2-24.6-47.2-54.9" fill="#010101"/><path d="m18.2 51.4c0-17.7 12.3-32.1 27.6-32.1 15.2 0 27.6 14.4 27.6 32.1 0 17.7-12.4 32.1-27.6 32.1-15.2 0-27.6-14.4-27.6-32.1" fill="#fcc"/><path d="m204.1 51.4c0-17.7 12.3-32.1 27.6-32.1 15.2 0 27.6 14.4 27.6 32.1 0 17.7-12.3 32.1-27.6 32.1-15.2 0-27.6-14.4-27.6-32.1" fill="#fcc"/><path d="m140.6 13.5c-72.2 0-130.7 53.3-130.7 119 0 65.7 74.9 119 130.7 119 62 0 130.7-53.3 130.7-119 0-65.7-58.5-119-130.7-119zm22 207.9c-10.6 0-19.3-5.4-20.6-12.4-1.3 7-10 12.4-20.6 12.4-11.5 0-20.8-6.4-20.8-14.3 0-0.6 0.1-1.2 0.2-1.7 1.3 7.1 10 12.5 20.6 12.5 10.4 0 19-5.3 20.5-12.2 0-0.1 0-0.2 0-0.3 0 0 0 0 0 0.1 0 0 0-0.1 0-0.1 0 0.1 0 0.2 0.1 0.3 1.5 6.9 10.1 12.2 20.5 12.2 10.6 0 19.3-5.5 20.6-12.5 0.1 0.6 0.2 1.2 0.2 1.7 0 7.9-9.3 14.3-20.8 14.3z" fill="#fff"/><path d="m113.9 95c19 8.7 24.5 30.4 12.3 48.5-12.3 18.1-37.6 25.7-56.6 17-19-8.7-24.5-30.4-12.3-48.5 12.3-18.1 37.6-25.7 56.7-17" fill="#010101"/><path d="m169.5 95.1c-19 8.7-24.5 30.4-12.3 48.5 12.3 18.1 37.6 25.7 56.6 17 19-8.7 24.5-30.4 12.3-48.5-12.3-18.1-37.6-25.7-56.6-17" fill="#010101"/><path d="m218.2 127.2c0 14.6-11.8 26.4-26.4 26.4-14.6 0-26.4-11.8-26.4-26.4 0-14.6 11.8-26.4 26.4-26.4 14.6 0 26.4 11.8 26.4 26.4" fill="#594a42"/><path d="m119.9 127.6c0 14.6-11.8 26.4-26.4 26.4-14.6 0-26.4-11.8-26.4-26.4 0-14.6 11.8-26.4 26.4-26.4 14.6 0 26.4 11.8 26.4 26.4" fill="#594a42"/><path d="m119.9 127.6c0 12.4-10.1 22.5-22.5 22.5-12.4 0-22.5-10.1-22.5-22.5 0-12.4 10.1-22.5 22.5-22.5 12.4 0 22.5 10.1 22.5 22.5" fill="#010101"/><path d="m218.2 127.2c0 12.4-10.1 22.5-22.5 22.5-12.4 0-22.5-10.1-22.5-22.5 0-12.4 10.1-22.5 22.5-22.5 12.4 0 22.5 10.1 22.5 22.5" fill="#010101"/><path d="m218.2 127.2c0 3.8-3.1 6.9-6.9 6.9-3.8 0-6.9-3.1-6.9-6.9 0-3.8 3.1-6.9 6.9-6.9 3.8 0 6.9 3.1 6.9 6.9z" fill="#fff"/><path d="m119.9 127.6c0 3.8-3.1 6.9-6.9 6.9-3.8 0-6.9-3.1-6.9-6.9 0-3.8 3.1-6.9 6.9-6.9 3.8 0 6.9 3.1 6.9 6.9z" fill="#fff"/><path d="m160.6 186.5c0 4.8-8 14.3-18 14.3-9.9 0-18-9.4-18-14.3 0-4.8 8-8.7 18-8.7 9.9 0 18 3.9 18 8.7z" fill="#010101"/><path d="m142.7 184.2c0 1.8-2.5 3.2-5.6 3.2-3.1 0-5.6-1.5-5.6-3.2 0-1.7 2.5-3.2 5.6-3.2 3.1 0 5.6 1.4 5.6 3.2z" fill="#797778"/></svg>
