<?xml version="1.0" encoding="UTF-8"?>
<svg xmlns="http://www.w3.org/2000/svg" xmlns:xlink="http://www.w3.org/1999/xlink" width="144px" height="144px" viewBox="0 0 144 144" version="1.1">
<g id="surface1">
<path style=" stroke:none;fill-rule:nonzero;fill:rgb(73.333333%,73.333333%,73.333333%);fill-opacity:1;" d="M 140.3125 76.648438 C 140.3125 113.769531 104.933594 143.835938 72.988281 143.835938 C 44.207031 143.835938 5.664062 113.769531 5.664062 76.648438 C 5.664062 39.527344 35.792969 9.457031 72.988281 9.457031 C 110.128906 9.457031 140.3125 39.527344 140.3125 76.648438 "/>
<path style=" stroke:none;fill-rule:nonzero;fill:rgb(0.392157%,0.392157%,0.392157%);fill-opacity:1;" d="M 0 30.902344 C 0 13.9375 10.960938 0.164062 24.519531 0.164062 C 38.027344 0.164062 49.039062 13.9375 49.039062 30.902344 C 49.039062 47.867188 38.078125 61.640625 24.519531 61.640625 C 10.960938 61.585938 0 47.867188 0 30.902344 "/>
<path style=" stroke:none;fill-rule:nonzero;fill:rgb(0.392157%,0.392157%,0.392157%);fill-opacity:1;" d="M 94.960938 31.742188 C 94.960938 14.777344 105.921875 1.003906 119.480469 1.003906 C 133.039062 1.003906 144 14.777344 144 31.742188 C 144 48.707031 133.039062 62.480469 119.480469 62.480469 C 105.972656 62.480469 94.960938 48.707031 94.960938 31.742188 "/>
<path style=" stroke:none;fill-rule:nonzero;fill:rgb(100%,80%,80%);fill-opacity:1;" d="M 9.453125 28.941406 C 9.453125 19.03125 15.84375 10.96875 23.792969 10.96875 C 31.6875 10.96875 38.128906 19.03125 38.128906 28.941406 C 38.128906 38.851562 31.6875 46.917969 23.792969 46.917969 C 15.894531 46.917969 9.453125 38.851562 9.453125 28.941406 "/>
<path style=" stroke:none;fill-rule:nonzero;fill:rgb(100%,80%,80%);fill-opacity:1;" d="M 106.027344 28.941406 C 106.027344 19.03125 112.414062 10.96875 120.363281 10.96875 C 128.257812 10.96875 134.703125 19.03125 134.703125 28.941406 C 134.703125 38.851562 128.3125 46.917969 120.363281 46.917969 C 112.46875 46.917969 106.027344 38.851562 106.027344 28.941406 "/>
<path style=" stroke:none;fill-rule:nonzero;fill:rgb(100%,100%,100%);fill-opacity:1;" d="M 73.039062 7.722656 C 35.53125 7.722656 5.144531 37.566406 5.144531 74.351562 C 5.144531 111.136719 44.050781 140.980469 73.039062 140.980469 C 105.246094 140.980469 140.933594 111.136719 140.933594 74.351562 C 140.933594 37.566406 110.546875 7.722656 73.039062 7.722656 Z M 84.46875 124.128906 C 78.960938 124.128906 74.441406 121.105469 73.765625 117.183594 C 73.089844 121.105469 68.570312 124.128906 63.066406 124.128906 C 57.089844 124.128906 52.257812 120.542969 52.257812 116.121094 C 52.257812 115.785156 52.3125 115.449219 52.363281 115.167969 C 53.039062 119.144531 57.558594 122.167969 63.066406 122.167969 C 68.46875 122.167969 72.933594 119.199219 73.714844 115.335938 C 73.714844 115.28125 73.714844 115.226562 73.714844 115.167969 C 73.714844 115.167969 73.714844 115.167969 73.714844 115.226562 C 73.714844 115.226562 73.714844 115.167969 73.714844 115.167969 C 73.714844 115.226562 73.714844 115.28125 73.765625 115.335938 C 74.546875 119.199219 79.011719 122.167969 84.414062 122.167969 C 89.921875 122.167969 94.441406 119.089844 95.117188 115.167969 C 95.167969 115.503906 95.222656 115.839844 95.222656 116.121094 C 95.222656 120.542969 90.390625 124.128906 84.414062 124.128906 Z M 84.46875 124.128906 "/>
<path style=" stroke:none;fill-rule:nonzero;fill:rgb(0.392157%,0.392157%,0.392157%);fill-opacity:1;" d="M 59.167969 53.355469 C 69.039062 58.226562 71.894531 70.375 65.558594 80.511719 C 59.167969 90.644531 46.027344 94.898438 36.15625 90.027344 C 26.285156 85.15625 23.429688 73.007812 29.765625 62.875 C 36.15625 52.738281 49.296875 48.484375 59.222656 53.355469 "/>
<path style=" stroke:none;fill-rule:nonzero;fill:rgb(0.392157%,0.392157%,0.392157%);fill-opacity:1;" d="M 88.050781 53.410156 C 78.183594 58.28125 75.324219 70.433594 81.664062 80.566406 C 88.050781 90.699219 101.195312 94.957031 111.066406 90.085938 C 120.933594 85.214844 123.792969 73.0625 117.453125 62.929688 C 111.066406 52.796875 97.921875 48.539062 88.050781 53.410156 "/>
<path style=" stroke:none;fill-rule:nonzero;fill:rgb(34.901961%,29.019608%,25.882353%);fill-opacity:1;" d="M 113.351562 71.382812 C 113.351562 79.558594 107.222656 86.164062 99.636719 86.164062 C 92.050781 86.164062 85.921875 79.558594 85.921875 71.382812 C 85.921875 63.210938 92.050781 56.601562 99.636719 56.601562 C 107.222656 56.601562 113.351562 63.210938 113.351562 71.382812 "/>
<path style=" stroke:none;fill-rule:nonzero;fill:rgb(34.901961%,29.019608%,25.882353%);fill-opacity:1;" d="M 62.285156 71.609375 C 62.285156 79.78125 56.15625 86.390625 48.570312 86.390625 C 40.988281 86.390625 34.855469 79.78125 34.855469 71.609375 C 34.855469 63.433594 40.988281 56.828125 48.570312 56.828125 C 56.15625 56.828125 62.285156 63.433594 62.285156 71.609375 "/>
<path style=" stroke:none;fill-rule:nonzero;fill:rgb(0.392157%,0.392157%,0.392157%);fill-opacity:1;" d="M 62.285156 71.609375 C 62.285156 78.550781 57.039062 84.207031 50.597656 84.207031 C 44.15625 84.207031 38.910156 78.550781 38.910156 71.609375 C 38.910156 64.664062 44.15625 59.011719 50.597656 59.011719 C 57.039062 59.011719 62.285156 64.664062 62.285156 71.609375 "/>
<path style=" stroke:none;fill-rule:nonzero;fill:rgb(0.392157%,0.392157%,0.392157%);fill-opacity:1;" d="M 113.351562 71.382812 C 113.351562 78.328125 108.105469 83.980469 101.664062 83.980469 C 95.222656 83.980469 89.972656 78.328125 89.972656 71.382812 C 89.972656 64.441406 95.222656 58.785156 101.664062 58.785156 C 108.105469 58.785156 113.351562 64.441406 113.351562 71.382812 "/>
<path style=" stroke:none;fill-rule:nonzero;fill:rgb(100%,100%,100%);fill-opacity:1;" d="M 113.351562 71.382812 C 113.351562 73.511719 111.742188 75.246094 109.765625 75.246094 C 107.792969 75.246094 106.183594 73.511719 106.183594 71.382812 C 106.183594 69.257812 107.792969 67.519531 109.765625 67.519531 C 111.742188 67.519531 113.351562 69.257812 113.351562 71.382812 Z M 113.351562 71.382812 "/>
<path style=" stroke:none;fill-rule:nonzero;fill:rgb(100%,100%,100%);fill-opacity:1;" d="M 62.285156 71.609375 C 62.285156 73.734375 60.675781 75.472656 58.703125 75.472656 C 56.726562 75.472656 55.117188 73.734375 55.117188 71.609375 C 55.117188 69.480469 56.726562 67.746094 58.703125 67.746094 C 60.675781 67.746094 62.285156 69.480469 62.285156 71.609375 Z M 62.285156 71.609375 "/>
<path style=" stroke:none;fill-rule:nonzero;fill:rgb(0.392157%,0.392157%,0.392157%);fill-opacity:1;" d="M 83.429688 104.585938 C 83.429688 107.273438 79.273438 112.59375 74.078125 112.59375 C 68.933594 112.59375 64.726562 107.332031 64.726562 104.585938 C 64.726562 101.898438 68.882812 99.714844 74.078125 99.714844 C 79.222656 99.714844 83.429688 101.898438 83.429688 104.585938 Z M 83.429688 104.585938 "/>
<path style=" stroke:none;fill-rule:nonzero;fill:rgb(47.45098%,46.666667%,47.058824%);fill-opacity:1;" d="M 74.128906 103.296875 C 74.128906 104.304688 72.832031 105.089844 71.222656 105.089844 C 69.609375 105.089844 68.3125 104.25 68.3125 103.296875 C 68.3125 102.347656 69.609375 101.507812 71.222656 101.507812 C 72.832031 101.507812 74.128906 102.289062 74.128906 103.296875 Z M 74.128906 103.296875 "/>
</g>
</svg>
